<mxfile host="65bd71144e">
    <diagram id="W8c9g54zQkOq5xAUK68N" name="Page-1">
        <mxGraphModel dx="550" dy="771" grid="1" gridSize="10" guides="1" tooltips="1" connect="1" arrows="1" fold="1" page="1" pageScale="1" pageWidth="1100" pageHeight="850" math="0" shadow="0">
            <root>
                <mxCell id="0"/>
                <mxCell id="1" parent="0"/>
                <mxCell id="MJSXwdi84W7TxyvxUMkm-1" value="" style="rounded=1;whiteSpace=wrap;html=1;&#10;width=360;height=720;" parent="1" vertex="1">
                    <mxGeometry x="120" y="40" width="360" height="710" as="geometry"/>
                </mxCell>
                <mxCell id="MJSXwdi84W7TxyvxUMkm-2" value="" style="rounded=1;whiteSpace=wrap;html=1;&#10;width=360;height=720;" parent="1" vertex="1">
                    <mxGeometry x="560" y="40" width="360" height="710" as="geometry"/>
                </mxCell>
                <mxCell id="MJSXwdi84W7TxyvxUMkm-3" value="" style="endArrow=none;html=1;rounded=0;exitX=0.003;exitY=0.061;exitDx=0;exitDy=0;exitPerimeter=0;entryX=0.994;entryY=0.056;entryDx=0;entryDy=0;entryPerimeter=0;" parent="1" source="MJSXwdi84W7TxyvxUMkm-1" target="MJSXwdi84W7TxyvxUMkm-1" edge="1">
                    <mxGeometry width="50" height="50" relative="1" as="geometry">
                        <mxPoint x="120" y="80" as="sourcePoint"/>
                        <mxPoint x="420" y="80" as="targetPoint"/>
                    </mxGeometry>
                </mxCell>
                <mxCell id="MJSXwdi84W7TxyvxUMkm-4" value="" style="endArrow=none;html=1;rounded=0;entryX=0.994;entryY=0.056;entryDx=0;entryDy=0;entryPerimeter=0;" parent="1" edge="1">
                    <mxGeometry width="50" height="50" relative="1" as="geometry">
                        <mxPoint x="120" y="120" as="sourcePoint"/>
                        <mxPoint x="479.99999999999994" y="119.99999999999999" as="targetPoint"/>
                    </mxGeometry>
                </mxCell>
                <mxCell id="MJSXwdi84W7TxyvxUMkm-5" value="" style="endArrow=none;html=1;rounded=0;exitX=0.003;exitY=0.061;exitDx=0;exitDy=0;exitPerimeter=0;entryX=0.994;entryY=0.056;entryDx=0;entryDy=0;entryPerimeter=0;" parent="1" edge="1">
                    <mxGeometry width="50" height="50" relative="1" as="geometry">
                        <mxPoint x="560" y="83.54999999999994" as="sourcePoint"/>
                        <mxPoint x="916.76" y="79.99999999999999" as="targetPoint"/>
                    </mxGeometry>
                </mxCell>
                <mxCell id="MJSXwdi84W7TxyvxUMkm-6" value="" style="endArrow=none;html=1;rounded=0;exitX=0.003;exitY=0.061;exitDx=0;exitDy=0;exitPerimeter=0;" parent="1" edge="1">
                    <mxGeometry width="50" height="50" relative="1" as="geometry">
                        <mxPoint x="560" y="123.54999999999994" as="sourcePoint"/>
                        <mxPoint x="920" y="120" as="targetPoint"/>
                    </mxGeometry>
                </mxCell>
                <mxCell id="MJSXwdi84W7TxyvxUMkm-8" value="" style="rounded=1;whiteSpace=wrap;html=1;" parent="1" vertex="1">
                    <mxGeometry x="200" y="240" width="190" height="250" as="geometry"/>
                </mxCell>
                <mxCell id="MJSXwdi84W7TxyvxUMkm-9" value="" style="rounded=1;whiteSpace=wrap;html=1;movable=0;resizable=0;rotatable=0;deletable=0;editable=0;connectable=0;" parent="1" vertex="1">
                    <mxGeometry x="200" y="180" width="180" height="40" as="geometry"/>
                </mxCell>
                <mxCell id="MJSXwdi84W7TxyvxUMkm-10" value="&lt;font style=&quot;font-size: 14px;&quot;&gt;Welcome to TruckyChat&lt;/font&gt;" style="text;html=1;strokeColor=none;fillColor=none;align=center;verticalAlign=middle;whiteSpace=wrap;rounded=0;movable=0;resizable=0;rotatable=0;deletable=0;editable=0;connectable=0;" parent="1" vertex="1">
                    <mxGeometry x="210" y="185" width="160" height="30" as="geometry"/>
                </mxCell>
                <mxCell id="MJSXwdi84W7TxyvxUMkm-12" value="Log In" style="text;html=1;strokeColor=none;fillColor=none;align=center;verticalAlign=middle;whiteSpace=wrap;rounded=0;fontSize=14;" parent="1" vertex="1">
                    <mxGeometry x="265" y="260" width="60" height="30" as="geometry"/>
                </mxCell>
                <mxCell id="MJSXwdi84W7TxyvxUMkm-13" value="Username:" style="text;html=1;strokeColor=none;fillColor=none;align=center;verticalAlign=middle;whiteSpace=wrap;rounded=0;fontSize=14;" parent="1" vertex="1">
                    <mxGeometry x="210" y="310" width="60" height="30" as="geometry"/>
                </mxCell>
                <mxCell id="MJSXwdi84W7TxyvxUMkm-14" value="Password:" style="text;html=1;strokeColor=none;fillColor=none;align=center;verticalAlign=middle;whiteSpace=wrap;rounded=0;fontSize=14;" parent="1" vertex="1">
                    <mxGeometry x="210" y="360" width="60" height="30" as="geometry"/>
                </mxCell>
                <mxCell id="MJSXwdi84W7TxyvxUMkm-15" value="&lt;font style=&quot;font-size: 12px;&quot;&gt;No Account, Create Account&lt;/font&gt;" style="text;html=1;strokeColor=none;fillColor=none;align=center;verticalAlign=middle;whiteSpace=wrap;rounded=0;fontSize=14;" parent="1" vertex="1">
                    <mxGeometry x="205" y="440" width="170" height="30" as="geometry"/>
                </mxCell>
                <mxCell id="MJSXwdi84W7TxyvxUMkm-23" value="" style="endArrow=none;html=1;rounded=0;fontSize=12;entryX=0.842;entryY=0.36;entryDx=0;entryDy=0;entryPerimeter=0;" parent="1" target="MJSXwdi84W7TxyvxUMkm-8" edge="1">
                    <mxGeometry width="50" height="50" relative="1" as="geometry">
                        <mxPoint x="290" y="330" as="sourcePoint"/>
                        <mxPoint x="340" y="280" as="targetPoint"/>
                    </mxGeometry>
                </mxCell>
                <mxCell id="MJSXwdi84W7TxyvxUMkm-24" value="" style="endArrow=none;html=1;rounded=0;fontSize=12;entryX=0.842;entryY=0.36;entryDx=0;entryDy=0;entryPerimeter=0;" parent="1" edge="1">
                    <mxGeometry width="50" height="50" relative="1" as="geometry">
                        <mxPoint x="290" y="380" as="sourcePoint"/>
                        <mxPoint x="359.98" y="380" as="targetPoint"/>
                    </mxGeometry>
                </mxCell>
                <mxCell id="MJSXwdi84W7TxyvxUMkm-29" value="&lt;font style=&quot;font-size: 14px;&quot;&gt;GO&lt;/font&gt;" style="text;html=1;strokeColor=none;fillColor=none;align=center;verticalAlign=middle;whiteSpace=wrap;rounded=0;fontSize=12;" parent="1" vertex="1">
                    <mxGeometry x="240" y="395" width="60" height="30" as="geometry"/>
                </mxCell>
                <mxCell id="MJSXwdi84W7TxyvxUMkm-30" value="" style="endArrow=classic;html=1;rounded=0;fontSize=14;entryX=0.632;entryY=0.68;entryDx=0;entryDy=0;entryPerimeter=0;" parent="1" target="MJSXwdi84W7TxyvxUMkm-8" edge="1">
                    <mxGeometry width="50" height="50" relative="1" as="geometry">
                        <mxPoint x="290" y="410" as="sourcePoint"/>
                        <mxPoint x="340" y="360" as="targetPoint"/>
                    </mxGeometry>
                </mxCell>
                <mxCell id="MJSXwdi84W7TxyvxUMkm-57" value="" style="rounded=1;whiteSpace=wrap;html=1;fontSize=14;" parent="1" vertex="1">
                    <mxGeometry x="640" y="170" width="220" height="40" as="geometry"/>
                </mxCell>
                <mxCell id="MJSXwdi84W7TxyvxUMkm-58" value="Hello, Happy To Have You" style="text;html=1;strokeColor=none;fillColor=none;align=center;verticalAlign=middle;whiteSpace=wrap;rounded=0;fontSize=14;" parent="1" vertex="1">
                    <mxGeometry x="650" y="175" width="190" height="30" as="geometry"/>
                </mxCell>
                <mxCell id="MJSXwdi84W7TxyvxUMkm-59" value="" style="group" parent="1" vertex="1" connectable="0">
                    <mxGeometry x="650" y="240" width="190" height="250" as="geometry"/>
                </mxCell>
                <mxCell id="MJSXwdi84W7TxyvxUMkm-60" value="" style="rounded=1;whiteSpace=wrap;html=1;" parent="MJSXwdi84W7TxyvxUMkm-59" vertex="1">
                    <mxGeometry width="190" height="250" as="geometry"/>
                </mxCell>
                <mxCell id="MJSXwdi84W7TxyvxUMkm-61" value="Create Account" style="text;html=1;strokeColor=none;fillColor=none;align=center;verticalAlign=middle;whiteSpace=wrap;rounded=0;fontSize=14;" parent="MJSXwdi84W7TxyvxUMkm-59" vertex="1">
                    <mxGeometry x="40" y="10" width="100" height="30" as="geometry"/>
                </mxCell>
                <mxCell id="MJSXwdi84W7TxyvxUMkm-62" value="Username:" style="text;html=1;strokeColor=none;fillColor=none;align=center;verticalAlign=middle;whiteSpace=wrap;rounded=0;fontSize=14;" parent="MJSXwdi84W7TxyvxUMkm-59" vertex="1">
                    <mxGeometry x="20" y="60" width="60" height="30" as="geometry"/>
                </mxCell>
                <mxCell id="MJSXwdi84W7TxyvxUMkm-63" value="City:" style="text;html=1;strokeColor=none;fillColor=none;align=center;verticalAlign=middle;whiteSpace=wrap;rounded=0;fontSize=14;" parent="MJSXwdi84W7TxyvxUMkm-59" vertex="1">
                    <mxGeometry x="20" y="90" width="60" height="30" as="geometry"/>
                </mxCell>
                <mxCell id="MJSXwdi84W7TxyvxUMkm-64" value="ImageUrl:" style="text;html=1;strokeColor=none;fillColor=none;align=center;verticalAlign=middle;whiteSpace=wrap;rounded=0;fontSize=14;" parent="MJSXwdi84W7TxyvxUMkm-59" vertex="1">
                    <mxGeometry x="20" y="130" width="60" height="30" as="geometry"/>
                </mxCell>
                <mxCell id="MJSXwdi84W7TxyvxUMkm-65" value="Password:" style="text;html=1;strokeColor=none;fillColor=none;align=center;verticalAlign=middle;whiteSpace=wrap;rounded=0;fontSize=14;" parent="MJSXwdi84W7TxyvxUMkm-59" vertex="1">
                    <mxGeometry x="20" y="170" width="60" height="30" as="geometry"/>
                </mxCell>
                <mxCell id="MJSXwdi84W7TxyvxUMkm-66" value="" style="endArrow=none;html=1;rounded=0;fontSize=12;entryX=0.842;entryY=0.36;entryDx=0;entryDy=0;entryPerimeter=0;" parent="MJSXwdi84W7TxyvxUMkm-59" edge="1">
                    <mxGeometry width="50" height="50" relative="1" as="geometry">
                        <mxPoint x="90" y="80" as="sourcePoint"/>
                        <mxPoint x="159.98000000000002" y="80" as="targetPoint"/>
                    </mxGeometry>
                </mxCell>
                <mxCell id="MJSXwdi84W7TxyvxUMkm-67" value="" style="endArrow=none;html=1;rounded=0;fontSize=12;entryX=0.842;entryY=0.36;entryDx=0;entryDy=0;entryPerimeter=0;" parent="MJSXwdi84W7TxyvxUMkm-59" edge="1">
                    <mxGeometry width="50" height="50" relative="1" as="geometry">
                        <mxPoint x="90" y="110" as="sourcePoint"/>
                        <mxPoint x="159.98000000000002" y="110" as="targetPoint"/>
                    </mxGeometry>
                </mxCell>
                <mxCell id="MJSXwdi84W7TxyvxUMkm-68" value="" style="endArrow=none;html=1;rounded=0;fontSize=12;entryX=0.842;entryY=0.36;entryDx=0;entryDy=0;entryPerimeter=0;" parent="MJSXwdi84W7TxyvxUMkm-59" edge="1">
                    <mxGeometry width="50" height="50" relative="1" as="geometry">
                        <mxPoint x="90" y="150" as="sourcePoint"/>
                        <mxPoint x="159.98000000000002" y="150" as="targetPoint"/>
                    </mxGeometry>
                </mxCell>
                <mxCell id="MJSXwdi84W7TxyvxUMkm-69" value="" style="endArrow=none;html=1;rounded=0;fontSize=12;entryX=0.842;entryY=0.36;entryDx=0;entryDy=0;entryPerimeter=0;" parent="MJSXwdi84W7TxyvxUMkm-59" edge="1">
                    <mxGeometry width="50" height="50" relative="1" as="geometry">
                        <mxPoint x="90" y="190" as="sourcePoint"/>
                        <mxPoint x="159.98000000000002" y="190" as="targetPoint"/>
                    </mxGeometry>
                </mxCell>
                <mxCell id="MJSXwdi84W7TxyvxUMkm-70" value="&lt;b&gt;Create Account&lt;/b&gt;" style="text;html=1;strokeColor=none;fillColor=none;align=center;verticalAlign=middle;whiteSpace=wrap;rounded=0;fontSize=14;" parent="MJSXwdi84W7TxyvxUMkm-59" vertex="1">
                    <mxGeometry x="30" y="210" width="110" height="30" as="geometry"/>
                </mxCell>
                <mxCell id="MJSXwdi84W7TxyvxUMkm-71" value="" style="rounded=1;whiteSpace=wrap;html=1;fontSize=14;" parent="1" vertex="1">
                    <mxGeometry x="610" y="540" width="270" height="40" as="geometry"/>
                </mxCell>
                <mxCell id="MJSXwdi84W7TxyvxUMkm-72" value="Account Created Successfully, Log In" style="text;html=1;strokeColor=none;fillColor=none;align=center;verticalAlign=middle;whiteSpace=wrap;rounded=0;fontSize=14;" parent="1" vertex="1">
                    <mxGeometry x="620" y="545" width="240" height="30" as="geometry"/>
                </mxCell>
                <mxCell id="MJSXwdi84W7TxyvxUMkm-73" value="Status Bar and Icons" style="text;html=1;strokeColor=none;fillColor=none;align=center;verticalAlign=middle;whiteSpace=wrap;rounded=0;fontSize=14;" parent="1" vertex="1">
                    <mxGeometry x="160" y="50" width="280" height="30" as="geometry"/>
                </mxCell>
                <mxCell id="MJSXwdi84W7TxyvxUMkm-74" value="Status Bar and Icons" style="text;html=1;strokeColor=none;fillColor=none;align=center;verticalAlign=middle;whiteSpace=wrap;rounded=0;fontSize=14;" parent="1" vertex="1">
                    <mxGeometry x="590" y="50" width="280" height="30" as="geometry"/>
                </mxCell>
                <mxCell id="MJSXwdi84W7TxyvxUMkm-75" value="Client Url bar" style="text;html=1;strokeColor=none;fillColor=none;align=center;verticalAlign=middle;whiteSpace=wrap;rounded=0;fontSize=14;" parent="1" vertex="1">
                    <mxGeometry x="600" y="90" width="280" height="30" as="geometry"/>
                </mxCell>
                <mxCell id="MJSXwdi84W7TxyvxUMkm-78" value="Client Url bar" style="text;html=1;strokeColor=none;fillColor=none;align=center;verticalAlign=middle;whiteSpace=wrap;rounded=0;fontSize=14;" parent="1" vertex="1">
                    <mxGeometry x="170" y="90" width="280" height="30" as="geometry"/>
                </mxCell>
            </root>
        </mxGraphModel>
    </diagram>
</mxfile>